<!-- first -->
<svg id="10015.io" viewBox="0 0 480 480" xmlns="http://www.w3.org/2000/svg" xmlns:xlink="http://www.w3.org/1999/xlink" >
	<defs>
		<clipPath id="blob">
			<path fill="#474bff" d="M337,257.5Q347,275,371,313.5Q395,352,367.5,364.5Q340,377,304,351Q268,325,254,389Q240,453,217.5,416.5Q195,380,153.5,398.5Q112,417,143.5,352Q175,287,95,300Q15,313,89,276.5Q163,240,164,228Q165,216,123.5,170.5Q82,125,95.5,92Q109,59,162.5,112.5Q216,166,228,92Q240,18,265.5,50Q291,82,297,118Q303,154,351.5,139Q400,124,395,157.5Q390,191,358.5,215.5Q327,240,337,257.5Z" />
		</clipPath>
	</defs>
	<image x="0" y="0" width="100%" height="100%" clip-path="url(#blob)" xlink:href="https://source.unsplash.com/random/600x600/?landscape" preserveAspectRatio="xMidYMid slice"></image>
</svg>


<!-- Second -->
<svg id="10015.io" viewBox="0 0 480 480" xmlns="http://www.w3.org/2000/svg" xmlns:xlink="http://www.w3.org/1999/xlink" >
	<defs>
		<clipPath id="blob">
			<path fill="#474bff" d="M447,279.5Q443,319,420,351Q397,383,353,380.5Q309,378,284,409.5Q259,441,222.5,435.5Q186,430,145.5,424.5Q105,419,109,369Q113,319,105.5,293Q98,267,53,232Q8,197,25,157Q42,117,82,100.5Q122,84,150,52.5Q178,21,217,41.5Q256,62,287,72.5Q318,83,342,104Q366,125,394,147Q422,169,436.5,204.5Q451,240,447,279.5Z" />
		</clipPath>
	</defs>
	<image x="0" y="0" width="100%" height="100%" clip-path="url(#blob)" xlink:href="https://source.unsplash.com/random/836x1180/?person" preserveAspectRatio="xMidYMid slice"></image>
</svg>